# AST/ASF file generated using VICON BodyLanguage
# -----------------------------------------------
:version 1.10
:name VICON
:units
  mass 1.0
  length 0.45
  angle deg
:documentation
   .ast/.asf automatically generated from VICON data using
   VICON BodyBuilder and BodyLanguage model FoxedUp or BRILLIANT.MOD
:root
   order TX TY TZ RX RY RZ
   axis XYZ
   position 0 0 0  
   orientation 0 0 0 
:bonedata
  begin
     id 1 
     name lhipjoint
     direction 0.693937 -0.600361 0.397515 
     length 2.37164 
     axis 0 0 0  XYZ
  end
  begin
     id 2 
     name lfemur
     direction 0.34202 -0.939693 0  
     length 6.18497  
     axis 0 0 20  XYZ
    dof rx ry rz
    limits (-160.0 20.0)
           (-70.0 70.0)
           (-60.0 70.0)
  end
  begin
     id 3 
     name ltibia
     direction 0.34202 -0.939693 0   
     length 6.91601   
     axis 0 0 20   XYZ
    dof rx
    limits (-10.0 170.0)
  end
  begin
     id 4 
     name lfoot
     direction 0.0978718 -0.2689 0.958182   
     length 1.81453   
     axis -90 7.62852e-016 20   XYZ
    dof rx rz
    limits (-45.0 90.0)
           (-70.0 20.0)
  end
  begin
     id 5 
     name ltoes
     direction 1.53569e-011 -4.21951e-011 1   
     length 0.912052   
     axis -90 7.62852e-016 20   XYZ
    dof rx
    limits (-90.0 20.0)
  end
  begin
     id 6 
     name rhipjoint
     direction -0.643996 -0.637876 0.422354   
     length 2.23216  
     axis 0 0 0  XYZ 
  end
  begin
     id 7 
     name rfemur
     direction -0.34202 -0.939693 0   
     length 6.15404   
     axis 0 0 -20   XYZ
    dof rx ry rz
    limits (-160.0 20.0)
           (-70.0 70.0)
           (-70.0 60.0)
  end
  begin
     id 8 
     name rtibia
     direction -0.34202 -0.939693 0   
     length 6.86744   
     axis 0 0 -20   XYZ
    dof rx
    limits (-10.0 170.0)
 end
 begin
     id 9 
     name rfoot
     direction -0.118701 -0.326127 0.937844   
     length 1.9243  
     axis -90 -7.62852e-016 -20   XYZ
    dof rx rz
    limits (-45.0 90.0)
           (-20.0 70.0)
  end
  begin
     id 10 
     name rtoes
     direction -1.5356e-011 -4.2181e-011 1   
     length 0.958865   
     axis -90 -7.62852e-016 -20   XYZ
    dof rx
    limits (-90.0 20.0)
  end
  begin
     id 11 
     name lowerback
     direction 0.0310826 0.968686 -0.246334   
     length 2.00021   
     axis 0 0 0   XYZ
    dof rx ry rz
    limits (-20.0 45.0)
           (-30.0 30.0)
           (-30.0 30.0)
  end
  begin
     id 12 
     name upperback
     direction -0.0152834 0.999474 -0.0286152   
     length 2.03728   
     axis 0 0 0   XYZ
    dof rx ry rz
    limits (-20.0 45.0)
           (-30.0 30.0)
           (-30.0 30.0)
  end
  begin
     id 13 
     name thorax
     direction -0.0323701 0.996236 0.0804149   
     length 2.16   
     axis 0 0 0   XYZ
    dof rx ry rz
    limits (-20.0 45.0)
           (-30.0 30.0)
           (-30.0 30.0)
  end
  begin
     id 14 
     name lowerneck
     direction 0.0307935 0.982251 0.185027   
     length 1.43558   
     axis 0 0 0   XYZ
    dof rx ry rz
    limits (-20.0 45.0)
           (-30.0 30.0)
           (-30.0 30.0)
  end
  begin
     id 15 
     name upperneck
     direction -0.0927153 0.994775 0.0427454   
     length 1.44603   
     axis 0 0 0   XYZ
    dof rx ry rz
    limits (-20.0 45.0)
           (-30.0 30.0)
           (-30.0 30.0)
  end
  begin
     id 16
     name head
     direction -0.0341265 0.999406 -0.00472033  
     length 1.45931  
     axis 0 0 0   XYZ
    dof rx ry rz
    limits (-20.0 45.0)
           (-30.0 30.0)
           (-30.0 30.0)
  end
  begin
     id 17 
     name lclavicle
     direction 0.820755 0.555306 -0.134151  
     length 2.66075  
     axis 0 0 0   XYZ
    dof ry rz
    limits (-20.0 10.0)
           (0.0 20.0)
  end
  begin
     id 18 
     name lhumerus
     direction 1 -4.48971e-011 5.24853e-027   
     length 5.0546   
     axis -180 -30 -90   XYZ
    dof rx ry rz
    limits (-60.0 90.0)
           (-90.0 90.0)
           (-90.0 90.0)
  end
  begin
     id 19
     name lradius
     direction 1 -4.48971e-011 2.76575e-028   
     length 3.39013   
     axis -180 -30 -90   XYZ
    dof rx
    limits (-10.0 170.0)
  end
  begin
     id 20
     name lwrist
     direction 1 -4.48939e-011 -2.27826e-027   
     length 1.69507   
     axis 2.17013e-015 90 90   XYZ
    dof ry
    limits (-180.0 0.0)
 end
  begin
     id 21 
     name lhand
     direction 1 -4.49009e-011 -4.55652e-027   
     length 0.572425   
     axis 2.90745e-015 90 90   XYZ
    dof rx rz
    limits (-90.0 90.0)
           (-45.0 45.0)
  end
  begin
     id 22 
     name lfingers
     direction 1 -4.48955e-011 -9.11303e-027   
     length 0.461504   
     axis 5.81489e-015 90 90   XYZ
    dof rx
    limits (0.0 90.0)
  end
  begin
     id 23
     name lthumb
     direction 0.707107 -6.34929e-011 0.707107   
     length 0.66263   
     axis -90 45 2.85299e-015   XYZ
    dof rx rz
    limits (-45.0 45.0)
           (-45.0 45.0)
  end
  begin
     id 24 
     name rclavicle
     direction -0.754477 0.632921 -0.173712   
     length 2.73081  
     axis 0 0 0   XYZ 
    dof ry rz
    limits (-10.0 20.0)
           (-20.0 0.0)
  end
  begin
     id 25 
     name rhumerus
     direction -1 -4.48969e-011 5.1496e-027  
     length 5.0701   
     axis -180 30 90   XYZ
    dof rx ry rz
    limits (-90.0 60.0)
           (-90.0 90.0)
           (-90.0 90.0)
  end
  begin
     id 26 
     name rradius
     direction -1 -4.48967e-011 -7.15624e-028   
     length 3.14957   
     axis -180 30 90   XYZ
    dof rx
    limits (-10.0 170.0)
  end
  begin
     id 27 
     name rwrist
     direction -1 -4.48938e-011 -2.27826e-027   
     length 1.57479   
     axis 2.17013e-015 -90 -90   XYZ
    dof ry
    limits (-180.0 0.0)
  end
  begin
     id 28
     name rhand
     direction -1 -4.49008e-011 -4.55652e-027   
     length 0.718191   
     axis 2.90745e-015 -90 -90   XYZ
    dof rx rz
    limits (-90.0 90.0)
           (-45.0 45.0)
  end
  begin
     id 29
     name rfingers
     direction -1 -4.48953e-011 -9.11303e-027   
     length 0.579024   
     axis 5.81489e-015 -90 -90   XYZ
    dof rx
    limits (0.0 90.0)
  end
  begin
     id 30
     name rthumb
     direction -0.707107 -6.34937e-011 0.707107   
     length 0.831366   
     axis -90 -45 -2.85299e-015   XYZ
    dof rx rz
    limits (-45.0 45.0)
           (-45.0 45.0)
  end
:hierarchy
  begin
    root lhipjoint rhipjoint lowerback
    lhipjoint lfemur
    lfemur ltibia
    ltibia lfoot
    lfoot ltoes
    rhipjoint rfemur
    rfemur rtibia
    rtibia rfoot
    rfoot rtoes
    lowerback upperback
    upperback thorax
    thorax lowerneck lclavicle rclavicle
    lowerneck upperneck
    upperneck head
    lclavicle lhumerus
    lhumerus lradius
    lradius lwrist
    lwrist lhand lthumb
    lhand lfingers
    rclavicle rhumerus
    rhumerus rradius
    rradius rwrist
    rwrist rhand rthumb
    rhand rfingers
  end

#!OML:ASF H:\Male1\Project 1\Capture day 1\Session 1\Male1.ASF
:FULLY-SPECIFIED
:DEGREES
147
root 8.36267 14.7752 4.25404 185.207 6.53994 -178.687
lowerback 19.7947 0.519681 -0.121691
upperback 5.45095 1.46969 -1.41623
thorax -5.13644 1.09899 -1.82563
lowerneck -5.08536 6.94378 10.6099
upperneck -7.90046 8.88474 -11.1813
head -0.51189 4.55501 -4.92625
rclavicle 1.13307e-014 1.59028e-015
rhumerus -17.8819 -6.03186 -67.1005
rradius 136.06
rwrist -12.4247
rhand -38.5525 32.0494
rfingers 7.12502
rthumb -11.5721 2.38893
lclavicle 1.13307e-014 1.59028e-015
lhumerus -18.0164 15.7871 67.4751
lradius 134.257
lwrist 12.2677
lhand -49.1276 -17.1794
lfingers 7.12502
lthumb -21.7516 11.6184
rfemur -28.17 0.989907 19.7446
rtibia 48.6445
rfoot -24.9941 -22.3663
rtoes -30.0448
lfemur -27.1684 -1.32413 -13.0585
ltibia 47.7767
lfoot -22.8172 15.3794
ltoes -23.5783
148
root 8.36608 14.7891 4.24903 185.205 6.46061 -178.643
lowerback 19.6968 0.526857 -0.078773
upperback 5.4244 1.48157 -1.37249
thorax -5.11387 1.10077 -1.80337
lowerneck -5.18097 6.93799 10.6111
upperneck -7.72676 8.86864 -11.1889
head -0.44671 4.54021 -4.92073
rclavicle -1.98785e-016 -1.19271e-015
rhumerus -18.3673 -5.10333 -69.868
rradius 136.361
rwrist -11.9056
rhand -39.3893 33.1863
rfingers 7.12502
rthumb -12.379 3.57284
lclavicle -1.98785e-016 -1.19271e-015
lhumerus -17.8251 16.1666 70.6233
lradius 135.01
lwrist 13.3978
lhand -51.6504 -16.3777
lfingers 7.12502
lthumb -24.1724 12.1192
rfemur -27.9222 1.01558 19.7976
rtibia 48.2811
rfoot -25.0197 -22.3463
rtoes -29.6349
lfemur -27.0061 -1.37692 -13.0068
ltibia 47.5028
lfoot -22.6683 15.4008
ltoes -23.7427
149
root 8.36894 14.8006 4.24425 185.185 6.38742 -178.611
lowerback 19.6053 0.524519 -0.0470466
upperback 5.40719 1.48043 -1.33404
thorax -5.08497 1.0972 -1.77738
lowerneck -5.27283 6.94868 10.6162
upperneck -7.58462 8.87552 -11.1964
head -0.388862 4.53803 -4.91593
rclavicle 1.68967e-014 -1.19271e-015
rhumerus -18.8713 -4.08736 -72.2264
rradius 136.443
rwrist -11.1116
rhand -39.2176 34.53
rfingers 7.12502
rthumb -12.2135 4.90656
lclavicle 1.68967e-014 -1.19271e-015
lhumerus -17.7663 16.1867 73.3522
lradius 135.511
lwrist 13.5338
lhand -53.3404 -16.3676
lfingers 7.12502
lthumb -25.7918 11.904
rfemur -27.6933 1.03388 19.8389
rtibia 47.9748
rfoot -25.0435 -22.3402
rtoes -29.2898
lfemur -26.8472 -1.43513 -12.9683
ltibia 47.2631
lfoot -22.5424 15.4214
ltoes -23.8502
150
root 8.37173 14.81 4.23933 185.143 6.32415 -178.579
lowerback 19.5216 0.501295 -0.00862966
upperback 5.40651 1.45574 -1.30911
thorax -5.04256 1.08367 -1.76413
lowerneck -5.34464 6.97898 10.6197
upperneck -7.50339 8.91115 -11.1926
head -0.349873 4.5524 -4.90867
rclavicle -9.74045e-015 1.74931e-014
rhumerus -19.3303 -3.10722 -74.1335
rradius 136.301
rwrist -10.0027
rhand -38.1927 35.8937
rfingers 7.12502
rthumb -11.2252 6.21406
lclavicle -9.74045e-015 1.74931e-014
lhumerus -17.8847 15.874 75.4399
lradius 135.742
lwrist 12.8049
lhand -54.1355 -17.1049
lfingers 7.12502
lthumb -26.553 11.0539
rfemur -27.468 1.04878 19.8852
rtibia 47.7149
rfoot -25.04 -22.3631
rtoes -29.0841
lfemur -26.6785 -1.50013 -12.9269
ltibia 47.054
lfoot -22.4435 15.4369
ltoes -23.8967
151
root 8.37478 14.8176 4.23438 185.074 6.28215 -178.552
lowerback 19.4493 0.463029 0.0430806
upperback 5.42382 1.41623 -1.31336
thorax -4.98616 1.06481 -1.78629
lowerneck -5.38406 7.01615 10.6153
upperneck -7.49848 8.96013 -11.1533
head -0.339583 4.57604 -4.89231
rclavicle -1.70955e-014 3.97569e-016
rhumerus -19.7238 -2.23467 -75.5762
rradius 135.978
rwrist -8.68772
rhand -36.7488 37.1813
rfingers 7.12502
rthumb -9.83231 7.43082
lclavicle -1.70955e-014 3.97569e-016
lhumerus -18.1599 15.2788 76.7797
lradius 135.698
lwrist 11.4143
lhand -53.9602 -18.5821
lfingers 7.12502
lthumb -26.3852 9.60199
rfemur -27.2387 1.06845 19.9296
rtibia 47.4905
rfoot -25.0102 -22.4032
rtoes -28.9961
lfemur -26.4902 -1.56565 -12.8893
ltibia 46.8703
lfoot -22.3733 15.4549
ltoes -23.8969
152
root 8.37823 14.8241 4.22991 184.993 6.27952 -178.527
lowerback 19.3876 0.429879 0.115787
upperback 5.45106 1.38826 -1.35087
thorax -4.92311 1.05288 -1.8588
lowerneck -5.40542 7.04247 10.5961
upperneck -7.54701 8.99853 -11.062
head -0.352812 4.59602 -4.86074
rclavicle -3.63776e-014 9.93923e-015
rhumerus -20.0606 -1.50689 -76.5621
rradius 135.546
rwrist -7.38
rhand -35.3791 38.2971
rfingers 7.12502
rthumb -8.51068 8.48857
lclavicle -3.63776e-014 9.93923e-015
lhumerus -18.5335 14.448 77.3765
lradius 135.406
lwrist 9.57025
lhand -52.9916 -20.4852
lfingers 7.12502
lthumb -25.4577 7.83453
rfemur -27.0178 1.11325 19.973
rtibia 47.2924
rfoot -24.9627 -22.4467
rtoes -28.9627
lfemur -26.2902 -1.61108 -12.8528
ltibia 46.7083
lfoot -22.3345 15.4703
ltoes -23.8282
